<svg width="1920" height="1080" xmlns="http://www.w3.org/2000/svg"><rect width="100%" height="100%" fill="#331a00"/><line x1="0" y1="0" x2="0" y2="1080" stroke="#ff8800" stroke-width="1" stroke-opacity="0.11479453462977748"/><line x1="50" y1="0" x2="50" y2="1080" stroke="#ff8800" stroke-width="1" stroke-opacity="0.16700326280522385"/><line x1="100" y1="0" x2="100" y2="1080" stroke="#ff8800" stroke-width="1" stroke-opacity="0.17329622732020397"/><line x1="150" y1="0" x2="150" y2="1080" stroke="#ff8800" stroke-width="1" stroke-opacity="0.11799547583980365"/><line x1="200" y1="0" x2="200" y2="1080" stroke="#ff8800" stroke-width="1" stroke-opacity="0.13229386199670634"/><line x1="250" y1="0" x2="250" y2="1080" stroke="#ff8800" stroke-width="1" stroke-opacity="0.10240448894832331"/><line x1="300" y1="0" x2="300" y2="1080" stroke="#ff8800" stroke-width="1" stroke-opacity="0.19767592470470846"/><line x1="350" y1="0" x2="350" y2="1080" stroke="#ff8800" stroke-width="1" stroke-opacity="0.06826895692641166"/><line x1="400" y1="0" x2="400" y2="1080" stroke="#ff8800" stroke-width="1" stroke-opacity="0.0542092289622346"/><line x1="450" y1="0" x2="450" y2="1080" stroke="#ff8800" stroke-width="1" stroke-opacity="0.15943606119116954"/><line x1="500" y1="0" x2="500" y2="1080" stroke="#ff8800" stroke-width="1" stroke-opacity="0.09310541682667017"/><line x1="550" y1="0" x2="550" y2="1080" stroke="#ff8800" stroke-width="1" stroke-opacity="0.1939972132586103"/><line x1="600" y1="0" x2="600" y2="1080" stroke="#ff8800" stroke-width="1" stroke-opacity="0.1617432149760536"/><line x1="650" y1="0" x2="650" y2="1080" stroke="#ff8800" stroke-width="1" stroke-opacity="0.1936906363112581"/><line x1="700" y1="0" x2="700" y2="1080" stroke="#ff8800" stroke-width="1" stroke-opacity="0.10620241930472109"/><line x1="750" y1="0" x2="750" y2="1080" stroke="#ff8800" stroke-width="1" stroke-opacity="0.15308269775545125"/><line x1="800" y1="0" x2="800" y2="1080" stroke="#ff8800" stroke-width="1" stroke-opacity="0.10815644530439526"/><line x1="850" y1="0" x2="850" y2="1080" stroke="#ff8800" stroke-width="1" stroke-opacity="0.06171334630734299"/><line x1="900" y1="0" x2="900" y2="1080" stroke="#ff8800" stroke-width="1" stroke-opacity="0.127323743784989"/><line x1="950" y1="0" x2="950" y2="1080" stroke="#ff8800" stroke-width="1" stroke-opacity="0.1674713998437622"/><line x1="1000" y1="0" x2="1000" y2="1080" stroke="#ff8800" stroke-width="1" stroke-opacity="0.13723773017651275"/><line x1="1050" y1="0" x2="1050" y2="1080" stroke="#ff8800" stroke-width="1" stroke-opacity="0.11013499255840313"/><line x1="1100" y1="0" x2="1100" y2="1080" stroke="#ff8800" stroke-width="1" stroke-opacity="0.15974680463951868"/><line x1="1150" y1="0" x2="1150" y2="1080" stroke="#ff8800" stroke-width="1" stroke-opacity="0.05927773922154375"/><line x1="1200" y1="0" x2="1200" y2="1080" stroke="#ff8800" stroke-width="1" stroke-opacity="0.1206350908074194"/><line x1="1250" y1="0" x2="1250" y2="1080" stroke="#ff8800" stroke-width="1" stroke-opacity="0.0977526091547894"/><line x1="1300" y1="0" x2="1300" y2="1080" stroke="#ff8800" stroke-width="1" stroke-opacity="0.12179416243235676"/><line x1="1350" y1="0" x2="1350" y2="1080" stroke="#ff8800" stroke-width="1" stroke-opacity="0.07752537600570869"/><line x1="1400" y1="0" x2="1400" y2="1080" stroke="#ff8800" stroke-width="1" stroke-opacity="0.19830392021421034"/><line x1="1450" y1="0" x2="1450" y2="1080" stroke="#ff8800" stroke-width="1" stroke-opacity="0.084134878424221"/><line x1="1500" y1="0" x2="1500" y2="1080" stroke="#ff8800" stroke-width="1" stroke-opacity="0.14715011779706938"/><line x1="1550" y1="0" x2="1550" y2="1080" stroke="#ff8800" stroke-width="1" stroke-opacity="0.08078643799784614"/><line x1="1600" y1="0" x2="1600" y2="1080" stroke="#ff8800" stroke-width="1" stroke-opacity="0.129701576950728"/><line x1="1650" y1="0" x2="1650" y2="1080" stroke="#ff8800" stroke-width="1" stroke-opacity="0.11895785411316945"/><line x1="1700" y1="0" x2="1700" y2="1080" stroke="#ff8800" stroke-width="1" stroke-opacity="0.18790869600950927"/><line x1="1750" y1="0" x2="1750" y2="1080" stroke="#ff8800" stroke-width="1" stroke-opacity="0.09560429371244962"/><line x1="1800" y1="0" x2="1800" y2="1080" stroke="#ff8800" stroke-width="1" stroke-opacity="0.10370034787497309"/><line x1="1850" y1="0" x2="1850" y2="1080" stroke="#ff8800" stroke-width="1" stroke-opacity="0.1751738659758858"/><line x1="1900" y1="0" x2="1900" y2="1080" stroke="#ff8800" stroke-width="1" stroke-opacity="0.11334544946351999"/><line x1="1950" y1="0" x2="1950" y2="1080" stroke="#ff8800" stroke-width="1" stroke-opacity="0.11388300246692078"/><line x1="0" y1="0" x2="1920" y2="0" stroke="#ff8800" stroke-width="1" stroke-opacity="0.05213561940879271"/><line x1="0" y1="50" x2="1920" y2="50" stroke="#ff8800" stroke-width="1" stroke-opacity="0.11939921072166583"/><line x1="0" y1="100" x2="1920" y2="100" stroke="#ff8800" stroke-width="1" stroke-opacity="0.19631727302520618"/><line x1="0" y1="150" x2="1920" y2="150" stroke="#ff8800" stroke-width="1" stroke-opacity="0.11976963431599216"/><line x1="0" y1="200" x2="1920" y2="200" stroke="#ff8800" stroke-width="1" stroke-opacity="0.1297413225233242"/><line x1="0" y1="250" x2="1920" y2="250" stroke="#ff8800" stroke-width="1" stroke-opacity="0.15670292119045331"/><line x1="0" y1="300" x2="1920" y2="300" stroke="#ff8800" stroke-width="1" stroke-opacity="0.10546577779546623"/><line x1="0" y1="350" x2="1920" y2="350" stroke="#ff8800" stroke-width="1" stroke-opacity="0.122363631872824"/><line x1="0" y1="400" x2="1920" y2="400" stroke="#ff8800" stroke-width="1" stroke-opacity="0.13179007504106205"/><line x1="0" y1="450" x2="1920" y2="450" stroke="#ff8800" stroke-width="1" stroke-opacity="0.12509651638662206"/><line x1="0" y1="500" x2="1920" y2="500" stroke="#ff8800" stroke-width="1" stroke-opacity="0.05240477031644338"/><line x1="0" y1="550" x2="1920" y2="550" stroke="#ff8800" stroke-width="1" stroke-opacity="0.054128319101679284"/><line x1="0" y1="600" x2="1920" y2="600" stroke="#ff8800" stroke-width="1" stroke-opacity="0.05379324070399236"/><line x1="0" y1="650" x2="1920" y2="650" stroke="#ff8800" stroke-width="1" stroke-opacity="0.09809519170074912"/><line x1="0" y1="700" x2="1920" y2="700" stroke="#ff8800" stroke-width="1" stroke-opacity="0.13684581974065385"/><line x1="0" y1="750" x2="1920" y2="750" stroke="#ff8800" stroke-width="1" stroke-opacity="0.09584886707793897"/><line x1="0" y1="800" x2="1920" y2="800" stroke="#ff8800" stroke-width="1" stroke-opacity="0.14159722530343735"/><line x1="0" y1="850" x2="1920" y2="850" stroke="#ff8800" stroke-width="1" stroke-opacity="0.19659078981555772"/><line x1="0" y1="900" x2="1920" y2="900" stroke="#ff8800" stroke-width="1" stroke-opacity="0.15540141041564104"/><line x1="0" y1="950" x2="1920" y2="950" stroke="#ff8800" stroke-width="1" stroke-opacity="0.09319052739628611"/><line x1="0" y1="1000" x2="1920" y2="1000" stroke="#ff8800" stroke-width="1" stroke-opacity="0.11650608868299735"/><line x1="0" y1="1050" x2="1920" y2="1050" stroke="#ff8800" stroke-width="1" stroke-opacity="0.16238376996426246"/><line x1="0" y1="1100" x2="1920" y2="1100" stroke="#ff8800" stroke-width="1" stroke-opacity="0.14248098623064975"/></svg>