<svg width="1920" height="1080" xmlns="http://www.w3.org/2000/svg"><rect width="100%" height="100%" fill="#222200"/><circle cx="673" cy="61" r="50" fill="none" stroke="#ffd700" stroke-width="5" stroke-opacity="0.14037656464416584"/><circle cx="199" cy="380" r="26" fill="none" stroke="#ffd700" stroke-width="1" stroke-opacity="0.06376170364572846"/><circle cx="1373" cy="221" r="68" fill="none" stroke="#ffd700" stroke-width="2" stroke-opacity="0.05780973796423398"/><circle cx="424" cy="444" r="119" fill="none" stroke="#ffd700" stroke-width="5" stroke-opacity="0.11888489562112128"/><circle cx="354" cy="16" r="199" fill="none" stroke="#ffd700" stroke-width="2" stroke-opacity="0.18236160908531296"/><circle cx="1235" cy="930" r="45" fill="none" stroke="#ffd700" stroke-width="1" stroke-opacity="0.19611780640772075"/><circle cx="472" cy="501" r="186" fill="none" stroke="#ffd700" stroke-width="3" stroke-opacity="0.08514379839540434"/><circle cx="36" cy="1008" r="80" fill="none" stroke="#ffd700" stroke-width="2" stroke-opacity="0.08613809764714167"/><circle cx="1859" cy="636" r="35" fill="none" stroke="#ffd700" stroke-width="1" stroke-opacity="0.15747676151280804"/><circle cx="502" cy="445" r="154" fill="none" stroke="#ffd700" stroke-width="3" stroke-opacity="0.10105151404363147"/><circle cx="1691" cy="102" r="120" fill="none" stroke="#ffd700" stroke-width="3" stroke-opacity="0.13300021989064026"/><circle cx="1750" cy="188" r="162" fill="none" stroke="#ffd700" stroke-width="5" stroke-opacity="0.11308446079398307"/><circle cx="1156" cy="497" r="150" fill="none" stroke="#ffd700" stroke-width="1" stroke-opacity="0.05423747775238588"/><circle cx="1500" cy="869" r="184" fill="none" stroke="#ffd700" stroke-width="5" stroke-opacity="0.18582841700167252"/><circle cx="1791" cy="757" r="162" fill="none" stroke="#ffd700" stroke-width="1" stroke-opacity="0.06180727840796905"/><circle cx="692" cy="392" r="165" fill="none" stroke="#ffd700" stroke-width="5" stroke-opacity="0.14372987326432837"/><circle cx="778" cy="33" r="53" fill="none" stroke="#ffd700" stroke-width="2" stroke-opacity="0.1829658110741682"/><circle cx="18" cy="519" r="171" fill="none" stroke="#ffd700" stroke-width="4" stroke-opacity="0.17826640666503574"/><circle cx="340" cy="647" r="40" fill="none" stroke="#ffd700" stroke-width="1" stroke-opacity="0.1705833666201261"/><circle cx="1770" cy="531" r="179" fill="none" stroke="#ffd700" stroke-width="4" stroke-opacity="0.19395293937403918"/><circle cx="1165" cy="911" r="115" fill="none" stroke="#ffd700" stroke-width="3" stroke-opacity="0.07240090082282727"/><circle cx="752" cy="1052" r="94" fill="none" stroke="#ffd700" stroke-width="5" stroke-opacity="0.07871289646126978"/><circle cx="1746" cy="537" r="149" fill="none" stroke="#ffd700" stroke-width="1" stroke-opacity="0.06973433932759807"/><circle cx="1558" cy="544" r="107" fill="none" stroke="#ffd700" stroke-width="4" stroke-opacity="0.07578707602383128"/><circle cx="1265" cy="804" r="97" fill="none" stroke="#ffd700" stroke-width="3" stroke-opacity="0.05106181331977724"/><circle cx="1563" cy="304" r="30" fill="none" stroke="#ffd700" stroke-width="4" stroke-opacity="0.11019589447341555"/><circle cx="1913" cy="331" r="153" fill="none" stroke="#ffd700" stroke-width="3" stroke-opacity="0.17933737211834894"/><circle cx="585" cy="956" r="78" fill="none" stroke="#ffd700" stroke-width="4" stroke-opacity="0.06487677182099046"/><circle cx="442" cy="827" r="40" fill="none" stroke="#ffd700" stroke-width="3" stroke-opacity="0.12701753574492283"/><circle cx="817" cy="979" r="196" fill="none" stroke="#ffd700" stroke-width="1" stroke-opacity="0.1450284970646719"/><circle cx="913" cy="292" r="114" fill="none" stroke="#ffd700" stroke-width="5" stroke-opacity="0.18786392534700147"/><circle cx="1911" cy="257" r="108" fill="none" stroke="#ffd700" stroke-width="4" stroke-opacity="0.06199362200803881"/><circle cx="795" cy="595" r="57" fill="none" stroke="#ffd700" stroke-width="5" stroke-opacity="0.13008292071230823"/><circle cx="664" cy="923" r="151" fill="none" stroke="#ffd700" stroke-width="5" stroke-opacity="0.07649018037306325"/><circle cx="1108" cy="695" r="21" fill="none" stroke="#ffd700" stroke-width="1" stroke-opacity="0.09116678164896032"/><circle cx="1035" cy="525" r="71" fill="none" stroke="#ffd700" stroke-width="5" stroke-opacity="0.1624498886694106"/><circle cx="564" cy="1059" r="176" fill="none" stroke="#ffd700" stroke-width="4" stroke-opacity="0.1292689098107079"/><circle cx="965" cy="4" r="107" fill="none" stroke="#ffd700" stroke-width="4" stroke-opacity="0.10907593479067587"/><circle cx="1061" cy="973" r="125" fill="none" stroke="#ffd700" stroke-width="4" stroke-opacity="0.18347090587955983"/><circle cx="750" cy="314" r="25" fill="none" stroke="#ffd700" stroke-width="3" stroke-opacity="0.09432370398692194"/><circle cx="1510" cy="306" r="134" fill="none" stroke="#ffd700" stroke-width="5" stroke-opacity="0.11846407331087264"/><circle cx="1830" cy="1059" r="40" fill="none" stroke="#ffd700" stroke-width="1" stroke-opacity="0.14250003589867477"/><circle cx="1272" cy="238" r="189" fill="none" stroke="#ffd700" stroke-width="5" stroke-opacity="0.10723702718395549"/><circle cx="930" cy="1027" r="172" fill="none" stroke="#ffd700" stroke-width="1" stroke-opacity="0.18426491862889594"/><circle cx="1037" cy="583" r="104" fill="none" stroke="#ffd700" stroke-width="4" stroke-opacity="0.09717100643817864"/><circle cx="1698" cy="869" r="174" fill="none" stroke="#ffd700" stroke-width="3" stroke-opacity="0.1011370142198667"/><circle cx="517" cy="782" r="95" fill="none" stroke="#ffd700" stroke-width="2" stroke-opacity="0.17114927025165258"/><circle cx="1000" cy="419" r="116" fill="none" stroke="#ffd700" stroke-width="3" stroke-opacity="0.13151669663252874"/><circle cx="1387" cy="984" r="66" fill="none" stroke="#ffd700" stroke-width="4" stroke-opacity="0.19543578428757102"/><circle cx="701" cy="615" r="100" fill="none" stroke="#ffd700" stroke-width="3" stroke-opacity="0.15916833392832075"/></svg>