<svg width="1920" height="1080" xmlns="http://www.w3.org/2000/svg"><rect width="100%" height="100%" fill="#330000"/><line x1="-1080" y1="0" x2="0" y2="1080" stroke="#ff0000" stroke-width="2" stroke-opacity="0.19500376883397527"/><line x1="-1040" y1="0" x2="40" y2="1080" stroke="#ff0000" stroke-width="2" stroke-opacity="0.16484068435572705"/><line x1="-1000" y1="0" x2="80" y2="1080" stroke="#ff0000" stroke-width="2" stroke-opacity="0.2738136364517191"/><line x1="-960" y1="0" x2="120" y2="1080" stroke="#ff0000" stroke-width="2" stroke-opacity="0.2996208212554615"/><line x1="-920" y1="0" x2="160" y2="1080" stroke="#ff0000" stroke-width="2" stroke-opacity="0.23668938085502875"/><line x1="-880" y1="0" x2="200" y2="1080" stroke="#ff0000" stroke-width="2" stroke-opacity="0.2356371927941537"/><line x1="-840" y1="0" x2="240" y2="1080" stroke="#ff0000" stroke-width="2" stroke-opacity="0.16027995203617115"/><line x1="-800" y1="0" x2="280" y2="1080" stroke="#ff0000" stroke-width="2" stroke-opacity="0.2826029975165258"/><line x1="-760" y1="0" x2="320" y2="1080" stroke="#ff0000" stroke-width="2" stroke-opacity="0.12982452338490288"/><line x1="-720" y1="0" x2="360" y2="1080" stroke="#ff0000" stroke-width="2" stroke-opacity="0.12333459693761886"/><line x1="-680" y1="0" x2="400" y2="1080" stroke="#ff0000" stroke-width="2" stroke-opacity="0.19382882056075174"/><line x1="-640" y1="0" x2="440" y2="1080" stroke="#ff0000" stroke-width="2" stroke-opacity="0.21125461058736233"/><line x1="-600" y1="0" x2="480" y2="1080" stroke="#ff0000" stroke-width="2" stroke-opacity="0.2926755482395857"/><line x1="-560" y1="0" x2="520" y2="1080" stroke="#ff0000" stroke-width="2" stroke-opacity="0.2644164572547152"/><line x1="-520" y1="0" x2="560" y2="1080" stroke="#ff0000" stroke-width="2" stroke-opacity="0.29130800749406616"/><line x1="-480" y1="0" x2="600" y2="1080" stroke="#ff0000" stroke-width="2" stroke-opacity="0.10618544571862756"/><line x1="-440" y1="0" x2="640" y2="1080" stroke="#ff0000" stroke-width="2" stroke-opacity="0.22627094046804352"/><line x1="-400" y1="0" x2="680" y2="1080" stroke="#ff0000" stroke-width="2" stroke-opacity="0.1843878340139608"/><line x1="-360" y1="0" x2="720" y2="1080" stroke="#ff0000" stroke-width="2" stroke-opacity="0.2844646613527682"/><line x1="-320" y1="0" x2="760" y2="1080" stroke="#ff0000" stroke-width="2" stroke-opacity="0.14183344829327196"/><line x1="-280" y1="0" x2="800" y2="1080" stroke="#ff0000" stroke-width="2" stroke-opacity="0.1384081116088444"/><line x1="-240" y1="0" x2="840" y2="1080" stroke="#ff0000" stroke-width="2" stroke-opacity="0.24355246714727327"/><line x1="-200" y1="0" x2="880" y2="1080" stroke="#ff0000" stroke-width="2" stroke-opacity="0.18653182303528004"/><line x1="-160" y1="0" x2="920" y2="1080" stroke="#ff0000" stroke-width="2" stroke-opacity="0.1236288505976827"/><line x1="-120" y1="0" x2="960" y2="1080" stroke="#ff0000" stroke-width="2" stroke-opacity="0.2681837230846489"/><line x1="-80" y1="0" x2="1000" y2="1080" stroke="#ff0000" stroke-width="2" stroke-opacity="0.10088595477299907"/><line x1="-40" y1="0" x2="1040" y2="1080" stroke="#ff0000" stroke-width="2" stroke-opacity="0.12331230578033286"/><line x1="0" y1="0" x2="1080" y2="1080" stroke="#ff0000" stroke-width="2" stroke-opacity="0.17948011930364177"/><line x1="40" y1="0" x2="1120" y2="1080" stroke="#ff0000" stroke-width="2" stroke-opacity="0.19065454056768735"/><line x1="80" y1="0" x2="1160" y2="1080" stroke="#ff0000" stroke-width="2" stroke-opacity="0.1375950356558105"/><line x1="120" y1="0" x2="1200" y2="1080" stroke="#ff0000" stroke-width="2" stroke-opacity="0.2618606914314173"/><line x1="160" y1="0" x2="1240" y2="1080" stroke="#ff0000" stroke-width="2" stroke-opacity="0.2675649539449466"/><line x1="200" y1="0" x2="1280" y2="1080" stroke="#ff0000" stroke-width="2" stroke-opacity="0.20367375245558106"/><line x1="240" y1="0" x2="1320" y2="1080" stroke="#ff0000" stroke-width="2" stroke-opacity="0.12786967117454626"/><line x1="280" y1="0" x2="1360" y2="1080" stroke="#ff0000" stroke-width="2" stroke-opacity="0.29985967342677156"/><line x1="320" y1="0" x2="1400" y2="1080" stroke="#ff0000" stroke-width="2" stroke-opacity="0.24612779072445348"/><line x1="360" y1="0" x2="1440" y2="1080" stroke="#ff0000" stroke-width="2" stroke-opacity="0.2030119081546212"/><line x1="400" y1="0" x2="1480" y2="1080" stroke="#ff0000" stroke-width="2" stroke-opacity="0.2899291798106064"/><line x1="440" y1="0" x2="1520" y2="1080" stroke="#ff0000" stroke-width="2" stroke-opacity="0.1111781217796048"/><line x1="480" y1="0" x2="1560" y2="1080" stroke="#ff0000" stroke-width="2" stroke-opacity="0.25282655899125794"/><line x1="520" y1="0" x2="1600" y2="1080" stroke="#ff0000" stroke-width="2" stroke-opacity="0.22685693470269752"/><line x1="560" y1="0" x2="1640" y2="1080" stroke="#ff0000" stroke-width="2" stroke-opacity="0.16478977676272274"/><line x1="600" y1="0" x2="1680" y2="1080" stroke="#ff0000" stroke-width="2" stroke-opacity="0.14805509286931076"/><line x1="640" y1="0" x2="1720" y2="1080" stroke="#ff0000" stroke-width="2" stroke-opacity="0.2691107928726496"/><line x1="680" y1="0" x2="1760" y2="1080" stroke="#ff0000" stroke-width="2" stroke-opacity="0.1936797793267141"/><line x1="720" y1="0" x2="1800" y2="1080" stroke="#ff0000" stroke-width="2" stroke-opacity="0.1130030725554152"/><line x1="760" y1="0" x2="1840" y2="1080" stroke="#ff0000" stroke-width="2" stroke-opacity="0.1629924625345844"/><line x1="800" y1="0" x2="1880" y2="1080" stroke="#ff0000" stroke-width="2" stroke-opacity="0.21897079599914293"/><line x1="840" y1="0" x2="1920" y2="1080" stroke="#ff0000" stroke-width="2" stroke-opacity="0.10732337451587573"/><line x1="880" y1="0" x2="1960" y2="1080" stroke="#ff0000" stroke-width="2" stroke-opacity="0.1377485675861876"/><line x1="920" y1="0" x2="2000" y2="1080" stroke="#ff0000" stroke-width="2" stroke-opacity="0.21627388913937173"/><line x1="960" y1="0" x2="2040" y2="1080" stroke="#ff0000" stroke-width="2" stroke-opacity="0.21686021655152743"/><line x1="1000" y1="0" x2="2080" y2="1080" stroke="#ff0000" stroke-width="2" stroke-opacity="0.18141392483377222"/><line x1="1040" y1="0" x2="2120" y2="1080" stroke="#ff0000" stroke-width="2" stroke-opacity="0.16666517725223123"/><line x1="1080" y1="0" x2="2160" y2="1080" stroke="#ff0000" stroke-width="2" stroke-opacity="0.1779191137113973"/><line x1="1120" y1="0" x2="2200" y2="1080" stroke="#ff0000" stroke-width="2" stroke-opacity="0.26113203340112673"/><line x1="1160" y1="0" x2="2240" y2="1080" stroke="#ff0000" stroke-width="2" stroke-opacity="0.211169264636595"/><line x1="1200" y1="0" x2="2280" y2="1080" stroke="#ff0000" stroke-width="2" stroke-opacity="0.18727455801500859"/><line x1="1240" y1="0" x2="2320" y2="1080" stroke="#ff0000" stroke-width="2" stroke-opacity="0.1465750622490827"/><line x1="1280" y1="0" x2="2360" y2="1080" stroke="#ff0000" stroke-width="2" stroke-opacity="0.29870721449083554"/><line x1="1320" y1="0" x2="2400" y2="1080" stroke="#ff0000" stroke-width="2" stroke-opacity="0.17976662931296067"/><line x1="1360" y1="0" x2="2440" y2="1080" stroke="#ff0000" stroke-width="2" stroke-opacity="0.2915908465916789"/><line x1="1400" y1="0" x2="2480" y2="1080" stroke="#ff0000" stroke-width="2" stroke-opacity="0.2982695593635555"/><line x1="1440" y1="0" x2="2520" y2="1080" stroke="#ff0000" stroke-width="2" stroke-opacity="0.12094348684684125"/><line x1="1480" y1="0" x2="2560" y2="1080" stroke="#ff0000" stroke-width="2" stroke-opacity="0.19778167526204488"/><line x1="1520" y1="0" x2="2600" y2="1080" stroke="#ff0000" stroke-width="2" stroke-opacity="0.2486402356625389"/><line x1="1560" y1="0" x2="2640" y2="1080" stroke="#ff0000" stroke-width="2" stroke-opacity="0.27542369658245924"/><line x1="1600" y1="0" x2="2680" y2="1080" stroke="#ff0000" stroke-width="2" stroke-opacity="0.2178915579327246"/><line x1="1640" y1="0" x2="2720" y2="1080" stroke="#ff0000" stroke-width="2" stroke-opacity="0.14976050069246127"/><line x1="1680" y1="0" x2="2760" y2="1080" stroke="#ff0000" stroke-width="2" stroke-opacity="0.2786458998249649"/><line x1="1720" y1="0" x2="2800" y2="1080" stroke="#ff0000" stroke-width="2" stroke-opacity="0.13841299823111625"/><line x1="1760" y1="0" x2="2840" y2="1080" stroke="#ff0000" stroke-width="2" stroke-opacity="0.12493721775984053"/><line x1="1800" y1="0" x2="2880" y2="1080" stroke="#ff0000" stroke-width="2" stroke-opacity="0.18236367195107528"/><line x1="1840" y1="0" x2="2920" y2="1080" stroke="#ff0000" stroke-width="2" stroke-opacity="0.2919035933543628"/><line x1="1880" y1="0" x2="2960" y2="1080" stroke="#ff0000" stroke-width="2" stroke-opacity="0.16607750126758636"/><line x1="1920" y1="0" x2="3000" y2="1080" stroke="#ff0000" stroke-width="2" stroke-opacity="0.10995711588127349"/><line x1="1960" y1="0" x2="3040" y2="1080" stroke="#ff0000" stroke-width="2" stroke-opacity="0.20196005480912227"/><line x1="2000" y1="0" x2="3080" y2="1080" stroke="#ff0000" stroke-width="2" stroke-opacity="0.1461282403470795"/><line x1="2040" y1="0" x2="3120" y2="1080" stroke="#ff0000" stroke-width="2" stroke-opacity="0.17241089825848516"/><line x1="2080" y1="0" x2="3160" y2="1080" stroke="#ff0000" stroke-width="2" stroke-opacity="0.12394778424747036"/><line x1="2120" y1="0" x2="3200" y2="1080" stroke="#ff0000" stroke-width="2" stroke-opacity="0.20147148972726597"/><line x1="2160" y1="0" x2="3240" y2="1080" stroke="#ff0000" stroke-width="2" stroke-opacity="0.28947230225854187"/><line x1="2200" y1="0" x2="3280" y2="1080" stroke="#ff0000" stroke-width="2" stroke-opacity="0.11837009083246855"/><line x1="2240" y1="0" x2="3320" y2="1080" stroke="#ff0000" stroke-width="2" stroke-opacity="0.264589136121743"/><line x1="2280" y1="0" x2="3360" y2="1080" stroke="#ff0000" stroke-width="2" stroke-opacity="0.19927144928629145"/><line x1="2320" y1="0" x2="3400" y2="1080" stroke="#ff0000" stroke-width="2" stroke-opacity="0.19361755868920047"/><line x1="2360" y1="0" x2="3440" y2="1080" stroke="#ff0000" stroke-width="2" stroke-opacity="0.22415987894768707"/><line x1="2400" y1="0" x2="3480" y2="1080" stroke="#ff0000" stroke-width="2" stroke-opacity="0.1571004949502277"/><line x1="2440" y1="0" x2="3520" y2="1080" stroke="#ff0000" stroke-width="2" stroke-opacity="0.15519277954799532"/><line x1="2480" y1="0" x2="3560" y2="1080" stroke="#ff0000" stroke-width="2" stroke-opacity="0.2871415705107293"/><line x1="2520" y1="0" x2="3600" y2="1080" stroke="#ff0000" stroke-width="2" stroke-opacity="0.11239098117175801"/><line x1="2560" y1="0" x2="3640" y2="1080" stroke="#ff0000" stroke-width="2" stroke-opacity="0.123283451540518"/><line x1="2600" y1="0" x2="3680" y2="1080" stroke="#ff0000" stroke-width="2" stroke-opacity="0.14794959588388745"/><line x1="2640" y1="0" x2="3720" y2="1080" stroke="#ff0000" stroke-width="2" stroke-opacity="0.1509527187314423"/><line x1="2680" y1="0" x2="3760" y2="1080" stroke="#ff0000" stroke-width="2" stroke-opacity="0.1373732115322342"/><line x1="2720" y1="0" x2="3800" y2="1080" stroke="#ff0000" stroke-width="2" stroke-opacity="0.18728484210926688"/><line x1="2760" y1="0" x2="3840" y2="1080" stroke="#ff0000" stroke-width="2" stroke-opacity="0.2920022292483807"/><line x1="2800" y1="0" x2="3880" y2="1080" stroke="#ff0000" stroke-width="2" stroke-opacity="0.1605713632981497"/><line x1="2840" y1="0" x2="3920" y2="1080" stroke="#ff0000" stroke-width="2" stroke-opacity="0.10987221267921775"/><line x1="2880" y1="0" x2="3960" y2="1080" stroke="#ff0000" stroke-width="2" stroke-opacity="0.2628274055811566"/><line x1="2920" y1="0" x2="4000" y2="1080" stroke="#ff0000" stroke-width="2" stroke-opacity="0.2381965362517585"/><line x1="2960" y1="0" x2="4040" y2="1080" stroke="#ff0000" stroke-width="2" stroke-opacity="0.25803092677343875"/></svg>