<svg width="1920" height="1080" xmlns="http://www.w3.org/2000/svg"><rect width="100%" height="100%" fill="#110011"/><path d="M 0 0.0 Q 50 -20.0 100 0.0 Q 150 -16.0 200 0.0 Q 250 -12.0 300 0.0 Q 350 26.0 400 0.0 Q 450 11.0 500 0.0 Q 550 -14.0 600 0.0 Q 650 -13.0 700 0.0 Q 750 -17.0 800 0.0 Q 850 -3.0 900 0.0 Q 950 -4.0 1000 0.0 Q 1050 -38.0 1100 0.0 Q 1150 6.0 1200 0.0 Q 1250 4.0 1300 0.0 Q 1350 -8.0 1400 0.0 Q 1450 -7.0 1500 0.0 Q 1550 26.0 1600 0.0 Q 1650 37.0 1700 0.0 Q 1750 -2.0 1800 0.0 Q 1850 34.0 1900 0.0 Q 1950 25.0 2000 0.0 Q 2050 -7.0 2100 0.0" fill="none" stroke="#aa00ff" stroke-width="3" stroke-opacity="0.3841781783304511"/><path d="M 0 54.0 Q 50 90.0 100 54.0 Q 150 52.0 200 54.0 Q 250 59.0 300 54.0 Q 350 32.0 400 54.0 Q 450 91.0 500 54.0 Q 550 63.0 600 54.0 Q 650 66.0 700 54.0 Q 750 75.0 800 54.0 Q 850 87.0 900 54.0 Q 950 42.0 1000 54.0 Q 1050 86.0 1100 54.0 Q 1150 87.0 1200 54.0 Q 1250 86.0 1300 54.0 Q 1350 45.0 1400 54.0 Q 1450 94.0 1500 54.0 Q 1550 78.0 1600 54.0 Q 1650 32.0 1700 54.0 Q 1750 81.0 1800 54.0 Q 1850 59.0 1900 54.0 Q 1950 46.0 2000 54.0 Q 2050 46.0 2100 54.0" fill="none" stroke="#aa00ff" stroke-width="3" stroke-opacity="0.13673083372770103"/><path d="M 0 108.0 Q 50 148.0 100 108.0 Q 150 113.0 200 108.0 Q 250 79.0 300 108.0 Q 350 114.0 400 108.0 Q 450 109.0 500 108.0 Q 550 68.0 600 108.0 Q 650 73.0 700 108.0 Q 750 129.0 800 108.0 Q 850 98.0 900 108.0 Q 950 121.0 1000 108.0 Q 1050 105.0 1100 108.0 Q 1150 98.0 1200 108.0 Q 1250 110.0 1300 108.0 Q 1350 105.0 1400 108.0 Q 1450 112.0 1500 108.0 Q 1550 145.0 1600 108.0 Q 1650 76.0 1700 108.0 Q 1750 93.0 1800 108.0 Q 1850 130.0 1900 108.0 Q 1950 90.0 2000 108.0 Q 2050 78.0 2100 108.0" fill="none" stroke="#aa00ff" stroke-width="3" stroke-opacity="0.3614761387809958"/><path d="M 0 162.0 Q 50 163.0 100 162.0 Q 150 136.0 200 162.0 Q 250 189.0 300 162.0 Q 350 122.0 400 162.0 Q 450 128.0 500 162.0 Q 550 127.0 600 162.0 Q 650 141.0 700 162.0 Q 750 184.0 800 162.0 Q 850 180.0 900 162.0 Q 950 192.0 1000 162.0 Q 1050 202.0 1100 162.0 Q 1150 182.0 1200 162.0 Q 1250 141.0 1300 162.0 Q 1350 162.0 1400 162.0 Q 1450 138.0 1500 162.0 Q 1550 181.0 1600 162.0 Q 1650 150.0 1700 162.0 Q 1750 154.0 1800 162.0 Q 1850 195.0 1900 162.0 Q 1950 141.0 2000 162.0 Q 2050 198.0 2100 162.0" fill="none" stroke="#aa00ff" stroke-width="3" stroke-opacity="0.3854126671129814"/><path d="M 0 216.0 Q 50 222.0 100 216.0 Q 150 246.0 200 216.0 Q 250 176.0 300 216.0 Q 350 227.0 400 216.0 Q 450 240.0 500 216.0 Q 550 197.0 600 216.0 Q 650 231.0 700 216.0 Q 750 239.0 800 216.0 Q 850 207.0 900 216.0 Q 950 186.0 1000 216.0 Q 1050 204.0 1100 216.0 Q 1150 246.0 1200 216.0 Q 1250 188.0 1300 216.0 Q 1350 192.0 1400 216.0 Q 1450 238.0 1500 216.0 Q 1550 256.0 1600 216.0 Q 1650 211.0 1700 216.0 Q 1750 204.0 1800 216.0 Q 1850 233.0 1900 216.0 Q 1950 176.0 2000 216.0 Q 2050 197.0 2100 216.0" fill="none" stroke="#aa00ff" stroke-width="3" stroke-opacity="0.2773837804900406"/><path d="M 0 270.0 Q 50 289.0 100 270.0 Q 150 249.0 200 270.0 Q 250 236.0 300 270.0 Q 350 271.0 400 270.0 Q 450 241.0 500 270.0 Q 550 267.0 600 270.0 Q 650 272.0 700 270.0 Q 750 288.0 800 270.0 Q 850 253.0 900 270.0 Q 950 259.0 1000 270.0 Q 1050 249.0 1100 270.0 Q 1150 261.0 1200 270.0 Q 1250 299.0 1300 270.0 Q 1350 284.0 1400 270.0 Q 1450 307.0 1500 270.0 Q 1550 241.0 1600 270.0 Q 1650 236.0 1700 270.0 Q 1750 284.0 1800 270.0 Q 1850 305.0 1900 270.0 Q 1950 274.0 2000 270.0 Q 2050 243.0 2100 270.0" fill="none" stroke="#aa00ff" stroke-width="3" stroke-opacity="0.11360799631593907"/><path d="M 0 324.0 Q 50 308.0 100 324.0 Q 150 321.0 200 324.0 Q 250 321.0 300 324.0 Q 350 303.0 400 324.0 Q 450 314.0 500 324.0 Q 550 354.0 600 324.0 Q 650 296.0 700 324.0 Q 750 334.0 800 324.0 Q 850 294.0 900 324.0 Q 950 319.0 1000 324.0 Q 1050 343.0 1100 324.0 Q 1150 304.0 1200 324.0 Q 1250 350.0 1300 324.0 Q 1350 317.0 1400 324.0 Q 1450 314.0 1500 324.0 Q 1550 324.0 1600 324.0 Q 1650 321.0 1700 324.0 Q 1750 305.0 1800 324.0 Q 1850 348.0 1900 324.0 Q 1950 344.0 2000 324.0 Q 2050 294.0 2100 324.0" fill="none" stroke="#aa00ff" stroke-width="3" stroke-opacity="0.21297955365388563"/><path d="M 0 378.0 Q 50 380.0 100 378.0 Q 150 347.0 200 378.0 Q 250 388.0 300 378.0 Q 350 394.0 400 378.0 Q 450 404.0 500 378.0 Q 550 391.0 600 378.0 Q 650 416.0 700 378.0 Q 750 383.0 800 378.0 Q 850 390.0 900 378.0 Q 950 351.0 1000 378.0 Q 1050 379.0 1100 378.0 Q 1150 375.0 1200 378.0 Q 1250 394.0 1300 378.0 Q 1350 410.0 1400 378.0 Q 1450 399.0 1500 378.0 Q 1550 373.0 1600 378.0 Q 1650 407.0 1700 378.0 Q 1750 363.0 1800 378.0 Q 1850 417.0 1900 378.0 Q 1950 411.0 2000 378.0 Q 2050 389.0 2100 378.0" fill="none" stroke="#aa00ff" stroke-width="3" stroke-opacity="0.13289174404287618"/><path d="M 0 432.0 Q 50 442.0 100 432.0 Q 150 461.0 200 432.0 Q 250 438.0 300 432.0 Q 350 394.0 400 432.0 Q 450 458.0 500 432.0 Q 550 470.0 600 432.0 Q 650 434.0 700 432.0 Q 750 466.0 800 432.0 Q 850 458.0 900 432.0 Q 950 403.0 1000 432.0 Q 1050 421.0 1100 432.0 Q 1150 430.0 1200 432.0 Q 1250 437.0 1300 432.0 Q 1350 427.0 1400 432.0 Q 1450 430.0 1500 432.0 Q 1550 454.0 1600 432.0 Q 1650 424.0 1700 432.0 Q 1750 448.0 1800 432.0 Q 1850 425.0 1900 432.0 Q 1950 456.0 2000 432.0 Q 2050 449.0 2100 432.0" fill="none" stroke="#aa00ff" stroke-width="3" stroke-opacity="0.1070795274837198"/><path d="M 0 486.0 Q 50 504.0 100 486.0 Q 150 491.0 200 486.0 Q 250 448.0 300 486.0 Q 350 499.0 400 486.0 Q 450 509.0 500 486.0 Q 550 487.0 600 486.0 Q 650 488.0 700 486.0 Q 750 496.0 800 486.0 Q 850 452.0 900 486.0 Q 950 486.0 1000 486.0 Q 1050 504.0 1100 486.0 Q 1150 516.0 1200 486.0 Q 1250 479.0 1300 486.0 Q 1350 459.0 1400 486.0 Q 1450 519.0 1500 486.0 Q 1550 508.0 1600 486.0 Q 1650 500.0 1700 486.0 Q 1750 494.0 1800 486.0 Q 1850 497.0 1900 486.0 Q 1950 499.0 2000 486.0 Q 2050 502.0 2100 486.0" fill="none" stroke="#aa00ff" stroke-width="3" stroke-opacity="0.3054960600162566"/><path d="M 0 540.0 Q 50 563.0 100 540.0 Q 150 571.0 200 540.0 Q 250 566.0 300 540.0 Q 350 561.0 400 540.0 Q 450 545.0 500 540.0 Q 550 579.0 600 540.0 Q 650 569.0 700 540.0 Q 750 520.0 800 540.0 Q 850 563.0 900 540.0 Q 950 503.0 1000 540.0 Q 1050 568.0 1100 540.0 Q 1150 529.0 1200 540.0 Q 1250 538.0 1300 540.0 Q 1350 541.0 1400 540.0 Q 1450 570.0 1500 540.0 Q 1550 534.0 1600 540.0 Q 1650 572.0 1700 540.0 Q 1750 559.0 1800 540.0 Q 1850 509.0 1900 540.0 Q 1950 519.0 2000 540.0 Q 2050 557.0 2100 540.0" fill="none" stroke="#aa00ff" stroke-width="3" stroke-opacity="0.3376692509551008"/><path d="M 0 594.0 Q 50 600.0 100 594.0 Q 150 572.0 200 594.0 Q 250 618.0 300 594.0 Q 350 611.0 400 594.0 Q 450 562.0 500 594.0 Q 550 558.0 600 594.0 Q 650 561.0 700 594.0 Q 750 627.0 800 594.0 Q 850 605.0 900 594.0 Q 950 598.0 1000 594.0 Q 1050 632.0 1100 594.0 Q 1150 573.0 1200 594.0 Q 1250 563.0 1300 594.0 Q 1350 610.0 1400 594.0 Q 1450 600.0 1500 594.0 Q 1550 592.0 1600 594.0 Q 1650 596.0 1700 594.0 Q 1750 565.0 1800 594.0 Q 1850 601.0 1900 594.0 Q 1950 576.0 2000 594.0 Q 2050 559.0 2100 594.0" fill="none" stroke="#aa00ff" stroke-width="3" stroke-opacity="0.26321831831025055"/><path d="M 0 648.0 Q 50 631.0 100 648.0 Q 150 671.0 200 648.0 Q 250 669.0 300 648.0 Q 350 639.0 400 648.0 Q 450 640.0 500 648.0 Q 550 678.0 600 648.0 Q 650 683.0 700 648.0 Q 750 633.0 800 648.0 Q 850 655.0 900 648.0 Q 950 645.0 1000 648.0 Q 1050 640.0 1100 648.0 Q 1150 645.0 1200 648.0 Q 1250 683.0 1300 648.0 Q 1350 662.0 1400 648.0 Q 1450 619.0 1500 648.0 Q 1550 644.0 1600 648.0 Q 1650 670.0 1700 648.0 Q 1750 656.0 1800 648.0 Q 1850 622.0 1900 648.0 Q 1950 640.0 2000 648.0 Q 2050 628.0 2100 648.0" fill="none" stroke="#aa00ff" stroke-width="3" stroke-opacity="0.1649189921554029"/><path d="M 0 702.0 Q 50 731.0 100 702.0 Q 150 680.0 200 702.0 Q 250 722.0 300 702.0 Q 350 706.0 400 702.0 Q 450 674.0 500 702.0 Q 550 693.0 600 702.0 Q 650 666.0 700 702.0 Q 750 720.0 800 702.0 Q 850 722.0 900 702.0 Q 950 734.0 1000 702.0 Q 1050 690.0 1100 702.0 Q 1150 669.0 1200 702.0 Q 1250 676.0 1300 702.0 Q 1350 701.0 1400 702.0 Q 1450 662.0 1500 702.0 Q 1550 665.0 1600 702.0 Q 1650 710.0 1700 702.0 Q 1750 714.0 1800 702.0 Q 1850 735.0 1900 702.0 Q 1950 719.0 2000 702.0 Q 2050 727.0 2100 702.0" fill="none" stroke="#aa00ff" stroke-width="3" stroke-opacity="0.12830162462756806"/><path d="M 0 756.0 Q 50 746.0 100 756.0 Q 150 752.0 200 756.0 Q 250 762.0 300 756.0 Q 350 743.0 400 756.0 Q 450 727.0 500 756.0 Q 550 731.0 600 756.0 Q 650 732.0 700 756.0 Q 750 773.0 800 756.0 Q 850 756.0 900 756.0 Q 950 739.0 1000 756.0 Q 1050 775.0 1100 756.0 Q 1150 749.0 1200 756.0 Q 1250 773.0 1300 756.0 Q 1350 779.0 1400 756.0 Q 1450 745.0 1500 756.0 Q 1550 720.0 1600 756.0 Q 1650 775.0 1700 756.0 Q 1750 725.0 1800 756.0 Q 1850 769.0 1900 756.0 Q 1950 729.0 2000 756.0 Q 2050 757.0 2100 756.0" fill="none" stroke="#aa00ff" stroke-width="3" stroke-opacity="0.20261685642877092"/><path d="M 0 810.0 Q 50 791.0 100 810.0 Q 150 782.0 200 810.0 Q 250 841.0 300 810.0 Q 350 807.0 400 810.0 Q 450 830.0 500 810.0 Q 550 798.0 600 810.0 Q 650 833.0 700 810.0 Q 750 830.0 800 810.0 Q 850 796.0 900 810.0 Q 950 803.0 1000 810.0 Q 1050 848.0 1100 810.0 Q 1150 809.0 1200 810.0 Q 1250 829.0 1300 810.0 Q 1350 843.0 1400 810.0 Q 1450 817.0 1500 810.0 Q 1550 787.0 1600 810.0 Q 1650 838.0 1700 810.0 Q 1750 794.0 1800 810.0 Q 1850 816.0 1900 810.0 Q 1950 836.0 2000 810.0 Q 2050 778.0 2100 810.0" fill="none" stroke="#aa00ff" stroke-width="3" stroke-opacity="0.2837332626261151"/><path d="M 0 864.0 Q 50 853.0 100 864.0 Q 150 869.0 200 864.0 Q 250 885.0 300 864.0 Q 350 880.0 400 864.0 Q 450 834.0 500 864.0 Q 550 852.0 600 864.0 Q 650 863.0 700 864.0 Q 750 888.0 800 864.0 Q 850 827.0 900 864.0 Q 950 854.0 1000 864.0 Q 1050 899.0 1100 864.0 Q 1150 840.0 1200 864.0 Q 1250 884.0 1300 864.0 Q 1350 833.0 1400 864.0 Q 1450 863.0 1500 864.0 Q 1550 870.0 1600 864.0 Q 1650 844.0 1700 864.0 Q 1750 893.0 1800 864.0 Q 1850 871.0 1900 864.0 Q 1950 861.0 2000 864.0 Q 2050 861.0 2100 864.0" fill="none" stroke="#aa00ff" stroke-width="3" stroke-opacity="0.39610863879118574"/><path d="M 0 918.0 Q 50 902.0 100 918.0 Q 150 878.0 200 918.0 Q 250 885.0 300 918.0 Q 350 954.0 400 918.0 Q 450 910.0 500 918.0 Q 550 882.0 600 918.0 Q 650 928.0 700 918.0 Q 750 896.0 800 918.0 Q 850 928.0 900 918.0 Q 950 879.0 1000 918.0 Q 1050 923.0 1100 918.0 Q 1150 920.0 1200 918.0 Q 1250 906.0 1300 918.0 Q 1350 947.0 1400 918.0 Q 1450 901.0 1500 918.0 Q 1550 883.0 1600 918.0 Q 1650 929.0 1700 918.0 Q 1750 890.0 1800 918.0 Q 1850 887.0 1900 918.0 Q 1950 933.0 2000 918.0 Q 2050 935.0 2100 918.0" fill="none" stroke="#aa00ff" stroke-width="3" stroke-opacity="0.2111719504588381"/><path d="M 0 972.0 Q 50 959.0 100 972.0 Q 150 995.0 200 972.0 Q 250 981.0 300 972.0 Q 350 996.0 400 972.0 Q 450 958.0 500 972.0 Q 550 939.0 600 972.0 Q 650 949.0 700 972.0 Q 750 1004.0 800 972.0 Q 850 932.0 900 972.0 Q 950 1000.0 1000 972.0 Q 1050 962.0 1100 972.0 Q 1150 953.0 1200 972.0 Q 1250 933.0 1300 972.0 Q 1350 981.0 1400 972.0 Q 1450 1012.0 1500 972.0 Q 1550 940.0 1600 972.0 Q 1650 990.0 1700 972.0 Q 1750 932.0 1800 972.0 Q 1850 1006.0 1900 972.0 Q 1950 940.0 2000 972.0 Q 2050 990.0 2100 972.0" fill="none" stroke="#aa00ff" stroke-width="3" stroke-opacity="0.2996246468506968"/><path d="M 0 1026.0 Q 50 1028.0 100 1026.0 Q 150 992.0 200 1026.0 Q 250 1006.0 300 1026.0 Q 350 1018.0 400 1026.0 Q 450 1037.0 500 1026.0 Q 550 1020.0 600 1026.0 Q 650 1023.0 700 1026.0 Q 750 1024.0 800 1026.0 Q 850 986.0 900 1026.0 Q 950 1042.0 1000 1026.0 Q 1050 991.0 1100 1026.0 Q 1150 996.0 1200 1026.0 Q 1250 1024.0 1300 1026.0 Q 1350 1037.0 1400 1026.0 Q 1450 1066.0 1500 1026.0 Q 1550 1055.0 1600 1026.0 Q 1650 1048.0 1700 1026.0 Q 1750 1035.0 1800 1026.0 Q 1850 1001.0 1900 1026.0 Q 1950 1057.0 2000 1026.0 Q 2050 1035.0 2100 1026.0" fill="none" stroke="#aa00ff" stroke-width="3" stroke-opacity="0.36694730198011694"/><path d="M 0 1080.0 Q 50 1048.0 100 1080.0 Q 150 1054.0 200 1080.0 Q 250 1057.0 300 1080.0 Q 350 1063.0 400 1080.0 Q 450 1094.0 500 1080.0 Q 550 1050.0 600 1080.0 Q 650 1071.0 700 1080.0 Q 750 1097.0 800 1080.0 Q 850 1045.0 900 1080.0 Q 950 1047.0 1000 1080.0 Q 1050 1051.0 1100 1080.0 Q 1150 1095.0 1200 1080.0 Q 1250 1046.0 1300 1080.0 Q 1350 1062.0 1400 1080.0 Q 1450 1120.0 1500 1080.0 Q 1550 1040.0 1600 1080.0 Q 1650 1088.0 1700 1080.0 Q 1750 1118.0 1800 1080.0 Q 1850 1112.0 1900 1080.0 Q 1950 1056.0 2000 1080.0 Q 2050 1072.0 2100 1080.0" fill="none" stroke="#aa00ff" stroke-width="3" stroke-opacity="0.28790283619718726"/><path d="M 0 1134.0 Q 50 1119.0 100 1134.0 Q 150 1156.0 200 1134.0 Q 250 1158.0 300 1134.0 Q 350 1099.0 400 1134.0 Q 450 1105.0 500 1134.0 Q 550 1130.0 600 1134.0 Q 650 1100.0 700 1134.0 Q 750 1145.0 800 1134.0 Q 850 1114.0 900 1134.0 Q 950 1118.0 1000 1134.0 Q 1050 1127.0 1100 1134.0 Q 1150 1094.0 1200 1134.0 Q 1250 1094.0 1300 1134.0 Q 1350 1134.0 1400 1134.0 Q 1450 1156.0 1500 1134.0 Q 1550 1151.0 1600 1134.0 Q 1650 1137.0 1700 1134.0 Q 1750 1111.0 1800 1134.0 Q 1850 1170.0 1900 1134.0 Q 1950 1115.0 2000 1134.0 Q 2050 1160.0 2100 1134.0" fill="none" stroke="#aa00ff" stroke-width="3" stroke-opacity="0.23245714980446008"/><path d="M 0 1188.0 Q 50 1204.0 100 1188.0 Q 150 1159.0 200 1188.0 Q 250 1223.0 300 1188.0 Q 350 1187.0 400 1188.0 Q 450 1177.0 500 1188.0 Q 550 1216.0 600 1188.0 Q 650 1193.0 700 1188.0 Q 750 1215.0 800 1188.0 Q 850 1161.0 900 1188.0 Q 950 1212.0 1000 1188.0 Q 1050 1166.0 1100 1188.0 Q 1150 1179.0 1200 1188.0 Q 1250 1152.0 1300 1188.0 Q 1350 1181.0 1400 1188.0 Q 1450 1204.0 1500 1188.0 Q 1550 1154.0 1600 1188.0 Q 1650 1186.0 1700 1188.0 Q 1750 1206.0 1800 1188.0 Q 1850 1209.0 1900 1188.0 Q 1950 1157.0 2000 1188.0 Q 2050 1150.0 2100 1188.0" fill="none" stroke="#aa00ff" stroke-width="3" stroke-opacity="0.11365992467992929"/><path d="M 0 1242.0 Q 50 1270.0 100 1242.0 Q 150 1205.0 200 1242.0 Q 250 1274.0 300 1242.0 Q 350 1246.0 400 1242.0 Q 450 1228.0 500 1242.0 Q 550 1273.0 600 1242.0 Q 650 1279.0 700 1242.0 Q 750 1246.0 800 1242.0 Q 850 1272.0 900 1242.0 Q 950 1252.0 1000 1242.0 Q 1050 1279.0 1100 1242.0 Q 1150 1220.0 1200 1242.0 Q 1250 1272.0 1300 1242.0 Q 1350 1276.0 1400 1242.0 Q 1450 1218.0 1500 1242.0 Q 1550 1234.0 1600 1242.0 Q 1650 1253.0 1700 1242.0 Q 1750 1202.0 1800 1242.0 Q 1850 1229.0 1900 1242.0 Q 1950 1203.0 2000 1242.0 Q 2050 1215.0 2100 1242.0" fill="none" stroke="#aa00ff" stroke-width="3" stroke-opacity="0.21626199567127408"/><path d="M 0 1296.0 Q 50 1296.0 100 1296.0 Q 150 1312.0 200 1296.0 Q 250 1294.0 300 1296.0 Q 350 1272.0 400 1296.0 Q 450 1280.0 500 1296.0 Q 550 1323.0 600 1296.0 Q 650 1314.0 700 1296.0 Q 750 1280.0 800 1296.0 Q 850 1261.0 900 1296.0 Q 950 1303.0 1000 1296.0 Q 1050 1292.0 1100 1296.0 Q 1150 1322.0 1200 1296.0 Q 1250 1322.0 1300 1296.0 Q 1350 1305.0 1400 1296.0 Q 1450 1310.0 1500 1296.0 Q 1550 1269.0 1600 1296.0 Q 1650 1317.0 1700 1296.0 Q 1750 1332.0 1800 1296.0 Q 1850 1323.0 1900 1296.0 Q 1950 1329.0 2000 1296.0 Q 2050 1335.0 2100 1296.0" fill="none" stroke="#aa00ff" stroke-width="3" stroke-opacity="0.2822654137624707"/></svg>